<?xml version="1.0" encoding="UTF-8" standalone="no"?>
<!-- Created with Inkscape (http://www.inkscape.org/) -->

<svg
   xmlns:dc="http://purl.org/dc/elements/1.1/"
   xmlns:cc="http://creativecommons.org/ns#"
   xmlns:rdf="http://www.w3.org/1999/02/22-rdf-syntax-ns#"
   xmlns:svg="http://www.w3.org/2000/svg"
   xmlns="http://www.w3.org/2000/svg"
   xmlns:sodipodi="http://sodipodi.sourceforge.net/DTD/sodipodi-0.dtd"
   xmlns:inkscape="http://www.inkscape.org/namespaces/inkscape"
   width="297mm"
   height="210mm"
   viewBox="0 0 297 210"
   version="1.1"
   id="svg4560"
   inkscape:version="0.92.3 (2405546, 2018-03-11)"
   sodipodi:docname="nautilus.svg"
   inkscape:export-filename="/home/tserong/src/github/tserong/scratch/images/nautilus.svg.png"
   inkscape:export-xdpi="100.02762"
   inkscape:export-ydpi="100.02762">
  <defs
     id="defs4554">
    <inkscape:path-effect
       effect="bspline"
       id="path-effect5190"
       is_visible="true"
       weight="33.333333"
       steps="2"
       helper_size="0"
       apply_no_weight="true"
       apply_with_weight="true"
       only_selected="false" />
    <inkscape:path-effect
       effect="bspline"
       id="path-effect5186"
       is_visible="true"
       weight="33.333333"
       steps="2"
       helper_size="0"
       apply_no_weight="true"
       apply_with_weight="true"
       only_selected="false" />
    <inkscape:path-effect
       effect="bspline"
       id="path-effect5182"
       is_visible="true"
       weight="33.333333"
       steps="2"
       helper_size="0"
       apply_no_weight="true"
       apply_with_weight="true"
       only_selected="false" />
  </defs>
  <sodipodi:namedview
     id="base"
     pagecolor="#000000"
     bordercolor="#666666"
     borderopacity="1.0"
     inkscape:pageopacity="0"
     inkscape:pageshadow="2"
     inkscape:zoom="0.70710678"
     inkscape:cx="457.36462"
     inkscape:cy="331.76359"
     inkscape:document-units="mm"
     inkscape:current-layer="layer1"
     showgrid="false"
     inkscape:window-width="1920"
     inkscape:window-height="1150"
     inkscape:window-x="0"
     inkscape:window-y="0"
     inkscape:window-maximized="1"
     inkscape:pagecheckerboard="false" />
  <metadata
     id="metadata4557">
    <rdf:RDF>
      <cc:Work
         rdf:about="">
        <dc:format>image/svg+xml</dc:format>
        <dc:type
           rdf:resource="http://purl.org/dc/dcmitype/StillImage" />
        <dc:title></dc:title>
      </cc:Work>
    </rdf:RDF>
  </metadata>
  <g
     inkscape:label="Layer 1"
     inkscape:groupmode="layer"
     id="layer1"
     transform="translate(0,-87)">
    <path
       style="color:#000000;font-style:normal;font-variant:normal;font-weight:normal;font-stretch:normal;font-size:medium;line-height:normal;font-family:sans-serif;font-variant-ligatures:normal;font-variant-position:normal;font-variant-caps:normal;font-variant-numeric:normal;font-variant-alternates:normal;font-feature-settings:normal;text-indent:0;text-align:start;text-decoration:none;text-decoration-line:none;text-decoration-style:solid;text-decoration-color:#000000;letter-spacing:normal;word-spacing:normal;text-transform:none;writing-mode:lr-tb;direction:ltr;text-orientation:mixed;dominant-baseline:auto;baseline-shift:baseline;text-anchor:start;white-space:normal;shape-padding:0;clip-rule:nonzero;display:inline;overflow:visible;visibility:visible;opacity:1;isolation:auto;mix-blend-mode:normal;color-interpolation:sRGB;color-interpolation-filters:linearRGB;solid-color:#000000;solid-opacity:1;vector-effect:none;fill:#ffffff;fill-opacity:1;fill-rule:evenodd;stroke:none;stroke-width:0.54316729;stroke-linecap:butt;stroke-linejoin:miter;stroke-miterlimit:4;stroke-dasharray:none;stroke-dashoffset:0;stroke-opacity:1;color-rendering:auto;image-rendering:auto;shape-rendering:auto;text-rendering:auto;enable-background:accumulate"
       d="m 123.90475,176.2501 c -0.0961,-0.21559 -0.19897,-0.42781 -0.30807,-0.63659 l 1.3e-4,-6e-5 c -1.31672,-2.51976 -3.54633,-4.54694 -5.91961,-6.10696 -2.1e-4,-1.3e-4 -2.8e-4,-1.9e-4 -8.5e-4,-2.7e-4 -8.4e-4,-2.6e-4 -0.001,-0.001 -0.002,-0.001 -5.6229,-3.78238 -13.65479,-3.42115 -18.656682,-1.16913 -5.001889,2.25201 -7.801985,4.71525 -10.194658,8.14386 -1.68e-4,2.6e-4 -5.24e-4,5.3e-4 -7.24e-4,5.8e-4 -1.34e-4,1.8e-4 -9.6e-5,5.3e-4 -3.03e-4,5.7e-4 -4.404722,6.20415 -5.135831,14.37113 -2.676774,21.42043 2.256471,7.90938 8.763572,14.20231 16.444271,17.28228 5.0032,2.00591 11.15151,2.45039 16.8687,2.01749 5.71719,-0.4329 14.08435,-1.9269 14.28188,-3.24675 1.01913,-6.80955 -2.02809,-13.01106 -4.96199,-15.68235 -2.9339,-2.6713 -6.4193,-3.62944 -8.27106,-5.40318 4.28214,-3.49052 5.76273,-9.48267 4.0691,-14.58661 -0.1558,-0.70822 -0.38338,-1.38556 -0.6716,-2.03232 z m -0.50569,0.21406 c 0.27734,0.62104 0.49546,1.26985 0.64312,1.94626 l 0.003,0.0136 0.004,0.0129 c 0.46643,1.40185 0.6836,2.87679 0.66039,4.34636 -0.18784,0.53279 -0.72457,1.68604 -1.31395,2.38471 -0.67723,0.8028 -1.46694,1.6464 -2.48197,2.20168 -1.02005,0.55804 -1.69461,0.72381 -2.79337,0.62594 -1.00652,-0.0896 -1.98526,-0.6421 -2.82444,-2.04411 0.131,-0.31551 0.22059,-0.65188 0.25967,-1.0062 0.27323,-1.44948 -0.13471,-2.82998 -0.94474,-3.95048 0.3844,0.15565 0.75077,0.27987 1.09806,0.37212 1.30225,0.34586 2.34843,0.26404 3.1772,-0.111 1.10503,-0.50005 1.80986,-1.51282 2.23261,-2.67398 0.42275,-1.16118 0.56768,-2.47525 0.55191,-3.6082 -0.007,-0.51223 -0.0453,-0.98447 -0.10758,-1.39179 0.59454,0.70732 1.11681,1.46389 1.53919,2.27033 0.1052,0.20085 0.20419,0.40483 0.29663,0.61184 z m -2.82223,-3.94935 c 0.23556,0.58746 0.62154,1.89174 0.63481,2.84506 0.0155,1.10971 -0.0353,2.32373 -0.49333,3.42664 -0.46025,1.10837 -0.91551,1.6655 -1.93021,2.25504 -0.98512,0.57236 -2.32924,0.67645 -4.26065,-0.16826 -0.003,-0.001 -0.006,-0.002 -0.009,-0.004 -0.21321,-0.27942 -0.45121,-0.54203 -0.7104,-0.78385 -0.74264,-0.6929 -1.65684,-1.22482 -2.6447,-1.52559 0.37959,-0.40465 0.70448,-0.80217 0.97753,-1.19209 0.89896,-1.2837 1.24447,-2.48414 1.19325,-3.58089 -0.0683,-1.46233 -0.83853,-2.72103 -1.88046,-3.73641 -1.04193,-1.01537 -2.35856,-1.79411 -3.55167,-2.3092 -0.1259,-0.0544 -0.24988,-0.10516 -0.37228,-0.1537 3.47843,-0.11998 7.06971,0.49834 9.83377,2.35844 l 0.002,0.001 8.4e-4,5.8e-4 c 1.14015,0.74925 2.23862,1.60477 3.21114,2.56644 z m 4.02282,11.7881 c -0.41824,3.23124 -2.00507,6.3031 -4.66663,8.35997 l -0.004,0.004 -0.004,0.004 c -0.25037,0.20959 -0.5106,0.40729 -0.77892,0.59358 -0.34376,0.12348 -1.32325,0.32911 -2.04962,0.24972 -0.7869,-0.086 -1.65317,-0.23047 -2.47361,-0.66864 -0.82452,-0.44036 -1.25723,-0.82865 -1.75814,-1.63659 -0.44162,-0.71221 -0.63126,-1.61194 -0.33072,-2.79317 1.18525,-0.40207 2.2264,-1.25126 2.72751,-2.38243 0.14094,0.22413 0.28525,0.43146 0.43339,0.61817 0.72619,0.91523 1.53276,1.39287 2.36411,1.54904 1.10847,0.20821 2.24589,-0.15614 3.2716,-0.77122 1.02571,-0.61507 1.94566,-1.48203 2.63708,-2.30166 0.24103,-0.28573 0.45217,-0.56298 0.63242,-0.82384 z m 4.42703,17.39974 c 0.92861,2.1297 1.42372,5.00146 1.15883,9.10375 -0.15907,2.46349 -17.20865,5.2893 -27.02285,1.33034 -8.058584,-3.25078 -11.581811,-8.15785 -14.711658,-15.36204 -1.073095,-3.40456 -1.583502,-6.75583 -1.488409,-9.8413 0.368083,-0.90004 1.158316,-2.70178 2.171245,-3.51703 1.218212,-0.98047 2.616423,-1.98026 4.28653,-2.44567 1.678365,-0.46769 2.739455,-0.4619 4.379281,0.11734 1.485929,0.5249 2.821831,1.74084 3.754011,4.18604 -0.1441,0.9827 -0.11029,1.98611 0.12966,2.94984 0.45099,2.71089 2.50227,4.73619 4.84068,6.01385 4.16623,2.61848 9.8027,1.98938 13.5601,-1.0203 2.75908,2.70568 6.89964,3.79984 8.94258,8.48518 z M 112.66257,172.243 c 0.19415,0.44609 0.31893,0.93857 0.40611,1.55285 0.19345,1.36316 -0.25139,2.9049 -1.93213,4.65287 -0.0247,0.0252 -0.0469,0.0547 -0.067,0.0845 -0.73846,-0.21296 -1.51591,-0.29718 -2.29216,-0.22261 -1.66289,0.0562 -3.1343,0.69828 -4.31161,1.68808 0.0659,-0.56419 0.0938,-1.09229 0.0859,-1.5854 -0.0284,-1.76522 -0.50753,-3.08669 -1.28068,-4.05001 -1.03087,-1.28443 -2.56863,-1.91686 -4.19349,-2.14735 -1.624851,-0.23049 -3.344092,-0.0631 -4.775828,0.26191 -0.124563,0.0282 -0.245956,0.0579 -0.365782,0.0882 1.053544,-0.90038 2.373221,-1.70527 4.676259,-3.01476 1.714091,-0.7762 3.956971,-1.42063 6.378011,-1.74721 0.75207,0.0307 2.17464,0.21816 3.1267,0.62919 1.16862,0.5045 2.41915,1.13144 3.38555,2.15857 0.54628,0.58062 0.91054,1.07754 1.16016,1.65109 z m 7.62106,20.83234 6e-5,1.2e-4 -0.008,0.007 c 0.002,-0.001 0.004,-0.004 0.005,-0.005 8.4e-4,-5.8e-4 0.002,-0.001 0.003,-0.002 z m -5.60505,-10.89163 c 0.37142,0.81312 0.51311,1.71878 0.33796,2.65702 -0.10928,0.1269 -0.24022,0.25985 -0.3728,0.35541 -0.29146,0.21004 -0.6277,0.4275 -1.03849,0.54946 -0.41282,0.12257 -0.67763,0.14301 -1.09419,0.067 -0.36145,-0.066 -0.69635,-0.25492 -0.95576,-0.65969 0.0285,-0.0306 0.0549,-0.0627 0.0784,-0.096 0.17914,-0.25375 0.18923,-0.57004 -0.0658,-1.15608 -0.0242,-0.0556 -0.0529,-0.10891 -0.0835,-0.16101 0.32857,0.0775 0.62952,0.082 0.90198,0.0282 0.50726,-0.10015 0.9109,-0.39573 1.21686,-0.75796 0.30595,-0.36223 0.51657,-0.79235 0.64088,-1.17169 0.0339,-0.10348 0.0609,-0.2023 0.0823,-0.29558 0.13307,0.20611 0.2512,0.42 0.35214,0.64096 z m -0.57916,-0.9652 c 0.003,0.2243 -0.0157,0.50422 -0.0868,0.72101 -0.12176,0.37156 -0.28248,0.77392 -0.59605,1.11456 -0.31514,0.34233 -0.56451,0.50089 -1.04537,0.63638 -0.26902,0.0758 -0.56899,0.0919 -0.90629,0.016 -0.1928,-0.31001 -0.49413,-0.55139 -0.83761,-0.68956 0.0516,-0.0562 0.10134,-0.11249 0.14726,-0.16853 0.39189,-0.47835 0.57947,-0.94849 0.6183,-1.39515 0.0518,-0.59553 -0.16071,-1.14117 -0.48408,-1.60079 -0.28649,-0.40718 -0.66058,-0.74874 -1.02322,-1.00499 1.31456,0.13412 2.58562,0.73423 3.54063,1.62526 0.24747,0.23089 0.473,0.48058 0.6732,0.74575 z m 0.87414,3.90786 c -0.26907,1.41389 -1.49931,2.48 -2.88865,2.8567 -0.16408,-0.0581 -0.36775,-0.14694 -0.51895,-0.25384 -0.25691,-0.18166 -0.53207,-0.39772 -0.74594,-0.69955 -0.21492,-0.30334 -0.30326,-0.51324 -0.3501,-0.87187 -0.0355,-0.27197 0.0147,-0.55217 0.2114,-0.83038 0.0264,0.0155 0.0564,0.0307 0.0953,0.0449 0.29157,0.10692 0.57224,-0.0102 0.76072,-0.2011 0.0322,0.0483 0.0652,0.0944 0.0994,0.13744 0.24111,0.3034 0.53061,0.48001 0.84249,0.56196 0.41584,0.10928 0.86563,0.0495 1.28291,-0.0899 0.41727,-0.1393 0.80429,-0.35818 1.10186,-0.57265 0.0381,-0.0274 0.0745,-0.0547 0.10954,-0.0818 z m 3.08063,8.80613 c -1.60941,0.86568 -3.43134,1.35179 -5.25876,1.40931 -5.5e-4,0 -5.5e-4,-2.7e-4 -8.5e-4,-2.7e-4 -0.31028,0.009 -1.50154,-0.18251 -2.20466,-0.56328 -0.70311,-0.38079 -1.44724,-0.84527 -1.97065,-1.55887 -0.52601,-0.71713 -0.70744,-1.2362 -0.70188,-2.16279 0.005,-0.83503 0.37938,-1.74678 1.42998,-2.72861 0.97356,0.43954 2.09891,0.44013 3.12335,0.10767 -0.0358,0.15351 -0.0652,0.30359 -0.0869,0.44965 -0.14013,0.93997 0.003,1.72676 0.3362,2.37727 0.4447,0.86733 1.22119,1.48148 2.08016,1.89851 0.85897,0.41705 1.80411,0.64051 2.6075,0.72831 0.22996,0.0252 0.44567,0.0386 0.64663,0.0432 z m -6.96823,-13.53032 c 0.15415,0.3151 0.21173,0.60869 0.21065,1.04221 -0.001,0.49122 -0.1862,1.01528 -0.70091,1.56096 -0.17717,-0.0676 -0.36434,-0.10863 -0.55319,-0.11693 -0.39861,-0.0175 -0.78778,0.0958 -1.14023,0.29578 0.14959,-0.59139 0.12155,-1.09669 -0.031,-1.523 -0.21168,-0.59151 -0.65852,-1.02386 -1.17538,-1.32725 -0.51687,-0.30338 -1.10577,-0.48023 -1.61514,-0.56242 -0.10844,-0.0175 -0.21186,-0.03 -0.31138,-0.0394 0.89549,-0.52819 1.91807,-0.85105 3.03342,-0.88757 l 0.009,-5.3e-4 0.01,-5.8e-4 c 0.1666,-0.0164 0.33362,-0.0241 0.5006,-0.0244 0.16663,0.0619 0.33185,0.13631 0.4656,0.22367 0.39584,0.25854 0.81497,0.57047 1.11042,1.03134 0.0742,0.11579 0.13629,0.22327 0.18767,0.3283 z m 0.12582,3.92591 c 0.0365,0.19285 0.0189,0.35277 -0.0323,0.42536 -0.055,0.0778 -0.13559,0.0808 -0.3988,0.10394 -0.13404,0.0117 -0.2041,0.14835 -0.21511,0.23696 -0.009,0.0697 -0.0104,0.15067 0.098,0.22221 -0.19272,0.2752 -0.26541,0.55618 -0.2517,0.83061 0.0183,0.36679 0.18984,0.71682 0.42021,1.01937 0.23037,0.30254 0.52038,0.55948 0.78268,0.74496 0.0714,0.0505 0.14015,0.0952 0.20553,0.1346 -1.18753,0.24347 -2.45211,-0.0199 -3.31061,-0.99745 l -0.007,-0.008 -0.008,-0.007 c -0.48643,-0.46956 -0.62623,-1.00862 -0.55886,-1.54979 0.0674,-0.54119 0.36051,-1.07922 0.75711,-1.46614 0.39659,-0.3869 0.88604,-0.61262 1.32481,-0.59332 0.42926,0.0189 0.84552,0.2562 1.19436,0.90439 z m -2.43792,-2.63481 c 0.18761,0.41051 0.24905,0.9043 0.0886,1.51434 -0.2009,0.11864 -0.38958,0.26484 -0.5603,0.43139 -0.26683,0.26032 -0.49341,0.57202 -0.65657,0.91448 -0.10496,-0.13759 -0.21186,-0.26447 -0.32054,-0.37948 -0.47489,-0.50256 -0.98169,-0.79566 -1.49124,-0.93233 -0.67941,-0.18221 -1.35435,-0.0849 -1.95213,0.14391 -0.59777,0.2288 -1.12187,0.58931 -1.50933,0.9428 -0.0243,0.0222 -0.0465,0.044 -0.0697,0.0661 0.23593,-0.85674 0.6136,-1.67994 1.1122,-2.417 0.50397,-0.74499 1.12818,-1.40002 1.84991,-1.91665 0.29413,-0.0474 0.6798,-0.0784 0.98424,-0.0293 0.49891,0.0805 1.04381,0.20229 1.53408,0.51865 0.4927,0.31792 0.73781,0.58957 0.99076,1.14312 z m -4.81273,-5.77499 c 0.45762,1.02667 0.63681,2.36855 0.38825,4.14522 -0.002,0.0122 -0.002,0.025 -0.003,0.0376 -0.52952,0.46372 -0.99699,0.99838 -1.39171,1.58187 -0.68705,1.01564 -1.15989,2.18038 -1.36758,3.3827 -0.13874,-0.33631 -0.28473,-0.65263 -0.43788,-0.94887 -0.87937,-1.70099 -1.9856,-2.75515 -3.206628,-3.32075 -1.628037,-0.75413 -3.437364,-0.63245 -5.138007,-0.0786 -1.70064,0.55391 -3.301652,1.5395 -4.545395,2.54053 -0.381694,0.30721 -0.729026,0.61388 -1.035742,0.91082 0.397705,-2.44657 1.235235,-4.65753 2.539094,-6.50511 0.7823,-1.07858 1.392549,-1.92458 1.93498,-2.63454 0.655898,-0.58541 2.072502,-1.79629 3.258947,-2.06562 1.402342,-0.31834 2.960783,-0.57974 4.524378,-0.28833 1.571323,0.29285 2.441493,0.72769 3.553493,1.87204 0.37111,0.38192 0.68721,0.83325 0.92693,1.37102 z m 3.66598,8.67555 c -0.11966,0.26087 -0.20282,0.53879 -0.23847,0.82513 -0.0352,0.28292 -0.0202,0.57472 0.0519,0.8611 -0.21219,0.0197 -0.41572,0.0451 -0.60836,0.0774 -0.98954,0.16584 -1.7258,0.49171 -2.25843,0.91602 -0.71015,0.56575 -1.04977,1.29825 -1.16315,2.03416 -0.0921,0.5978 -0.0352,1.19886 0.0942,1.72693 -0.64423,-0.8539 -1.10279,-1.82563 -1.28064,-2.90824 l -0.002,-0.0107 -0.002,-0.0105 c -0.2384,-0.95278 -0.25788,-1.95689 -0.0897,-2.93813 0.13514,-0.26386 0.34788,-0.60021 0.58647,-0.81789 0.37951,-0.34624 0.82563,-0.70433 1.41923,-0.90447 0.59654,-0.20114 0.99884,-0.23417 1.66814,-0.10694 0.62554,0.11889 1.25177,0.4738 1.82294,1.25616 z m 1.66693,3.70898 c -0.15979,0.15389 -0.30738,0.30699 -0.44026,0.45887 -0.69991,0.79996 -1.03619,1.56957 -1.10762,2.28877 -0.0952,0.95892 0.28009,1.81534 0.85318,2.52455 0.55368,0.6852 1.29283,1.23564 1.98966,1.62283 -1.32908,-0.21987 -2.61532,-0.68445 -3.77462,-1.41471 l -0.007,-0.004 -0.008,-0.004 c -0.76355,-0.41668 -1.48848,-0.91301 -2.12944,-1.48467 -0.27283,-0.29108 -0.65734,-0.79388 -0.79992,-1.2317 -0.19218,-0.5902 -0.35389,-1.25407 -0.20574,-1.96828 0.14887,-0.71773 0.38408,-1.13891 1.01496,-1.72823 0.56987,-0.53238 1.42928,-0.93106 2.77187,-1.03897 0.10424,0.38236 0.31267,0.75346 0.64595,1.07878 0.35093,0.39775 0.75795,0.6945 1.19696,0.90118 z"
       id="path5394"
       inkscape:connector-curvature="0" />
    <text
       xml:space="preserve"
       style="font-style:normal;font-weight:normal;font-size:18.38828278px;line-height:11.49267673px;font-family:sans-serif;letter-spacing:0px;word-spacing:0px;fill:#ffffff;fill-opacity:1;stroke:none;stroke-width:0.45970702px;stroke-linecap:butt;stroke-linejoin:miter;stroke-opacity:1"
       x="131.67976"
       y="191.98898"
       id="text817"
       transform="scale(1.0141652,0.98603266)"><tspan
         sodipodi:role="line"
         id="tspan815"
         x="131.67976"
         y="191.98898"
         style="font-style:normal;font-variant:normal;font-weight:normal;font-stretch:normal;font-family:'Titillium Web ExtraLight';-inkscape-font-specification:'Titillium Web ExtraLight, ';fill:#ffffff;fill-opacity:1;stroke-width:0.45970702px">NAUTILUS</tspan></text>
  </g>
</svg>
